Katibeh-Regular.ufo
<glyph name="uni0621" format="1">
  <advance width="330"/>
  <unicode hex="0621"/>
  <outline>
    <contour>
      <point x="173" y="100"/>
      <point x="150" y="132"/>
      <point x="143" y="143" type="curve"/>
      <point x="145" y="145"/>
      <point x="173" y="166"/>
      <point x="194" y="166" type="curve" smooth="yes"/>
      <point x="199" y="166"/>
      <point x="218" y="160"/>
      <point x="228" y="138" type="curve"/>
      <point x="261" y="167" type="line"/>
      <point x="261" y="167"/>
      <point x="252" y="223"/>
      <point x="207" y="223" type="curve" smooth="yes"/>
      <point x="157" y="223"/>
      <point x="103" y="150"/>
      <point x="99" y="143" type="curve"/>
      <point x="96" y="138"/>
      <point x="95" y="133"/>
      <point x="95" y="128" type="curve" smooth="yes"/>
      <point x="95" y="81"/>
      <point x="137" y="65"/>
      <point x="137" y="65" type="curve"/>
      <point x="127" y="60"/>
      <point x="101" y="53"/>
      <point x="89" y="48" type="curve"/>
      <point x="49" y="-13" type="line"/>
      <point x="59" y="-20" type="line"/>
      <point x="109" y="5"/>
      <point x="186" y="34"/>
      <point x="281" y="49" type="curve"/>
      <point x="281" y="49"/>
      <point x="301" y="103"/>
      <point x="301" y="104" type="curve"/>
      <point x="275" y="100"/>
      <point x="252" y="96"/>
      <point x="219" y="88" type="curve"/>
    </contour>
    <contour>
      <point x="185" y="243" type="move" name="top"/>
    </contour>
    <contour>
      <point x="165" y="-12" type="move" name="bottom"/>
    </contour>
  </outline>
</glyph>
<glyph name="uni065A" format="1">
  <advance width="0"/>
  <unicode hex="065A"/>
  <outline>
    <contour>
      <point x="46" y="853"/>
      <point x="34" y="836"/>
      <point x="24" y="818" type="curve" smooth="yes"/>
      <point x="10" y="794"/>
      <point x="0" y="767"/>
      <point x="0" y="752" type="curve"/>
      <point x="-4" y="773"/>
      <point x="-11" y="795"/>
      <point x="-21" y="815" type="curve" smooth="yes"/>
      <point x="-31" y="834"/>
      <point x="-42" y="850"/>
      <point x="-56" y="861" type="curve"/>
      <point x="-71" y="825" type="line"/>
      <point x="-57" y="813"/>
      <point x="-42" y="790"/>
      <point x="-30" y="764" type="curve" smooth="yes"/>
      <point x="-20" y="742"/>
      <point x="-12" y="719"/>
      <point x="-9" y="700" type="curve"/>
      <point x="9" y="700" type="line"/>
      <point x="13" y="719"/>
      <point x="22" y="746"/>
      <point x="34" y="770" type="curve" smooth="yes"/>
      <point x="45" y="793"/>
      <point x="58" y="814"/>
      <point x="71" y="825" type="curve"/>
      <point x="56" y="861" type="line"/>
    </contour>
    <contour>
      <point x="0" y="861" type="move" name="top"/>
    </contour>
    <contour>
      <point x="0" y="680" type="move" name="_top"/>
    </contour>
  </outline>
</glyph>
<glyph name="uni0660" format="1">
  <advance width="258"/>
  <unicode hex="0660"/>
  <outline>
    <contour>
      <point x="173" y="167"/>
      <point x="190" y="189"/>
      <point x="208" y="215" type="curve"/>
      <point x="191" y="241"/>
      <point x="147" y="279"/>
      <point x="114" y="297" type="curve"/>
      <point x="97" y="273"/>
      <point x="61" y="232"/>
      <point x="40" y="209" type="curve"/>
      <point x="69" y="192"/>
      <point x="100" y="164"/>
      <point x="134" y="129" type="curve"/>
    </contour>
  </outline>
</glyph>
<glyph name="uni0666" format="1">
  <advance width="440"/>
  <unicode hex="0666"/>
  <outline>
    <contour>
      <point x="318" y="532" type="line"/>
      <point x="260" y="516"/>
      <point x="217" y="513"/>
      <point x="186" y="513" type="curve" smooth="yes"/>
      <point x="146" y="513"/>
      <point x="123" y="522"/>
      <point x="109" y="535" type="curve" smooth="yes"/>
      <point x="93" y="550"/>
      <point x="90" y="569"/>
      <point x="87" y="583" type="curve"/>
      <point x="65" y="574" type="line"/>
      <point x="63" y="558"/>
      <point x="48" y="493"/>
      <point x="82" y="448" type="curve" smooth="yes"/>
      <point x="102" y="421"/>
      <point x="139" y="401"/>
      <point x="205" y="401" type="curve" smooth="yes"/>
      <point x="225" y="401"/>
      <point x="242" y="403"/>
      <point x="263" y="407" type="curve"/>
      <point x="261" y="377"/>
      <point x="256" y="326"/>
      <point x="254" y="271" type="curve" smooth="yes"/>
      <point x="252" y="203"/>
      <point x="255" y="128"/>
      <point x="275" y="74" type="curve" smooth="yes"/>
      <point x="288" y="37"/>
      <point x="308" y="10"/>
      <point x="338" y="0" type="curve"/>
      <point x="370" y="135" type="line"/>
      <point x="344" y="165"/>
      <point x="331" y="222"/>
      <point x="325" y="283" type="curve" smooth="yes"/>
      <point x="317" y="374"/>
      <point x="325" y="475"/>
      <point x="329" y="516" type="curve"/>
    </contour>
  </outline>
</glyph>
<glyph name="uni0669" format="1">
  <advance width="408"/>
  <unicode hex="0669"/>
  <outline>
    <contour>
      <point x="329" y="148"/>
      <point x="316" y="173"/>
      <point x="306" y="220" type="curve" smooth="yes"/>
      <point x="299" y="253"/>
      <point x="294" y="298"/>
      <point x="294" y="357" type="curve" smooth="yes"/>
      <point x="294" y="427"/>
      <point x="282" y="485"/>
      <point x="259" y="524" type="curve" smooth="yes"/>
      <point x="237" y="562"/>
      <point x="206" y="583"/>
      <point x="167" y="583" type="curve" smooth="yes"/>
      <point x="108" y="583"/>
      <point x="73" y="537"/>
      <point x="70" y="504" type="curve" smooth="yes"/>
      <point x="66" y="471"/>
      <point x="60" y="417"/>
      <point x="60" y="417" type="curve"/>
      <point x="56" y="361"/>
      <point x="94" y="319"/>
      <point x="166" y="319" type="curve" smooth="yes"/>
      <point x="203" y="319" type="line"/>
      <point x="228" y="362" type="line"/>
      <point x="225" y="322"/>
      <point x="219" y="250"/>
      <point x="223" y="180" type="curve" smooth="yes"/>
      <point x="228" y="99"/>
      <point x="248" y="20"/>
      <point x="306" y="0" type="curve"/>
      <point x="338" y="135" type="line"/>
    </contour>
    <contour>
      <point x="106" y="425"/>
      <point x="105" y="452"/>
      <point x="105" y="452" type="curve" smooth="yes"/>
      <point x="105" y="452"/>
      <point x="121" y="485"/>
      <point x="154" y="488" type="curve" smooth="yes"/>
      <point x="191" y="491"/>
      <point x="214" y="444"/>
      <point x="220" y="425" type="curve"/>
      <point x="142" y="425" type="line" smooth="yes"/>
    </contour>
  </outline>
</glyph>
<glyph name="uni06D8" format="1">
  <advance width="0"/>
  <unicode hex="06D8"/>
  <outline>
    <contour>
      <point x="-82" y="706" type="line"/>
      <point x="-48" y="706" type="line" smooth="yes"/>
      <point x="-44" y="706"/>
      <point x="-23" y="707"/>
      <point x="-3" y="723" type="curve" smooth="yes"/>
      <point x="8" y="732"/>
      <point x="17" y="747"/>
      <point x="19" y="771" type="curve"/>
      <point x="25" y="762"/>
      <point x="35" y="756"/>
      <point x="48" y="756" type="curve" smooth="yes"/>
      <point x="62" y="756"/>
      <point x="74" y="765"/>
      <point x="74" y="765" type="curve"/>
      <point x="83" y="805" type="line" smooth="yes"/>
      <point x="86" y="816"/>
      <point x="81" y="831"/>
      <point x="74" y="842" type="curve"/>
      <point x="67" y="853"/>
      <point x="58" y="862"/>
      <point x="50" y="862" type="curve" smooth="yes"/>
      <point x="37" y="862"/>
      <point x="26" y="853"/>
      <point x="19" y="841" type="curve" smooth="yes"/>
      <point x="13" y="831"/>
      <point x="10" y="818"/>
      <point x="10" y="806" type="curve" smooth="yes"/>
      <point x="10" y="785"/>
      <point x="-10" y="763"/>
      <point x="-24" y="753" type="curve" smooth="yes"/>
      <point x="-39" y="742"/>
      <point x="-64" y="728"/>
      <point x="-88" y="717" type="curve"/>
    </contour>
    <contour>
      <point x="27" y="819"/>
      <point x="37" y="825"/>
      <point x="46" y="825" type="curve" smooth="yes"/>
      <point x="58" y="825"/>
      <point x="70" y="808"/>
      <point x="70" y="808" type="curve"/>
      <point x="66" y="801"/>
      <point x="62" y="793"/>
      <point x="62" y="793" type="curve" smooth="yes"/>
      <point x="49" y="793"/>
      <point x="32" y="800"/>
      <point x="22" y="810" type="curve"/>
    </contour>
    <contour>
      <point x="-2" y="862" type="move" name="top"/>
    </contour>
    <contour>
      <point x="-2" y="686" type="move" name="_top"/>
    </contour>
  </outline>
</glyph>
<glyph name="uni06D9" format="1">
  <advance width="0"/>
  <unicode hex="06D9"/>
  <outline>
    <contour>
      <point x="-57" y="901" type="line"/>
      <point x="-55" y="912" type="line"/>
      <point x="-36" y="896"/>
      <point x="-26" y="884"/>
      <point x="-15" y="871" type="curve" smooth="yes"/>
      <point x="6" y="846"/>
      <point x="13" y="837"/>
      <point x="28" y="809" type="curve"/>
      <point x="22" y="799"/>
      <point x="10" y="789"/>
      <point x="-2" y="782" type="curve" smooth="yes"/>
      <point x="-14" y="775"/>
      <point x="-27" y="770"/>
      <point x="-40" y="768" type="curve"/>
      <point x="-48" y="768" type="line"/>
      <point x="-59" y="725" type="line"/>
      <point x="-11" y="726" type="line" smooth="yes"/>
      <point x="17" y="726"/>
      <point x="52" y="727"/>
      <point x="52" y="727" type="curve"/>
      <point x="65" y="779" type="line" smooth="yes"/>
      <point x="67" y="786"/>
      <point x="60" y="803"/>
      <point x="55" y="813" type="curve"/>
      <point x="65" y="828"/>
      <point x="72" y="849"/>
      <point x="75" y="864" type="curve" smooth="yes"/>
      <point x="79" y="886"/>
      <point x="79" y="900"/>
      <point x="77" y="937" type="curve" smooth="yes"/>
      <point x="76" y="949"/>
      <point x="77" y="953"/>
      <point x="86" y="961" type="curve"/>
      <point x="73" y="970"/>
      <point x="67" y="981"/>
      <point x="61" y="996" type="curve"/>
      <point x="51" y="995"/>
      <point x="46" y="988"/>
      <point x="43" y="981" type="curve" smooth="yes"/>
      <point x="38" y="969"/>
      <point x="39" y="956"/>
      <point x="39" y="956" type="curve"/>
      <point x="45" y="951" type="line"/>
      <point x="47" y="944"/>
      <point x="52" y="926"/>
      <point x="52" y="883" type="curve" smooth="yes"/>
      <point x="52" y="864"/>
      <point x="51" y="858"/>
      <point x="44" y="835" type="curve"/>
      <point x="37" y="851"/>
      <point x="16" y="884"/>
      <point x="-2" y="906" type="curve" smooth="yes"/>
      <point x="-20" y="928"/>
      <point x="-52" y="961"/>
      <point x="-79" y="975" type="curve"/>
      <point x="-90" y="935" type="line"/>
    </contour>
    <contour>
      <point x="21" y="774"/>
      <point x="31" y="783"/>
      <point x="38" y="791" type="curve"/>
      <point x="43" y="781"/>
      <point x="46" y="773"/>
      <point x="47" y="770" type="curve"/>
      <point x="37" y="768"/>
      <point x="9" y="768"/>
      <point x="9" y="768" type="curve"/>
    </contour>
    <contour>
      <point x="-2" y="996" type="move" name="top"/>
    </contour>
    <contour>
      <point x="-2" y="705" type="move" name="_top"/>
    </contour>
  </outline>
</glyph>
<glyph name="uni06DB" format="1">
  <advance width="0"/>
  <unicode hex="06DB"/>
  <outline>
    <contour>
      <point x="-50" y="724"/>
      <point x="-38" y="714"/>
      <point x="-25" y="700" type="curve"/>
      <point x="-13" y="712"/>
      <point x="-6" y="719"/>
      <point x="-1" y="726" type="curve"/>
      <point x="9" y="720"/>
      <point x="18" y="712"/>
      <point x="29" y="700" type="curve"/>
      <point x="46" y="715"/>
      <point x="52" y="725"/>
      <point x="60" y="735" type="curve"/>
      <point x="53" y="747"/>
      <point x="36" y="760"/>
      <point x="23" y="767" type="curve"/>
      <point x="1" y="742" type="line"/>
      <point x="-7" y="750"/>
      <point x="-20" y="761"/>
      <point x="-31" y="767" type="curve"/>
      <point x="-38" y="757"/>
      <point x="-53" y="741"/>
      <point x="-62" y="731" type="curve"/>
    </contour>
    <contour>
      <point x="-24" y="786"/>
      <point x="-13" y="777"/>
      <point x="0" y="762" type="curve"/>
      <point x="17" y="778"/>
      <point x="24" y="787"/>
      <point x="31" y="797" type="curve"/>
      <point x="24" y="808"/>
      <point x="7" y="822"/>
      <point x="-6" y="829" type="curve"/>
      <point x="-13" y="820"/>
      <point x="-27" y="803"/>
      <point x="-36" y="793" type="curve"/>
    </contour>
    <contour>
      <point x="-1" y="829" type="move" name="top"/>
    </contour>
    <contour>
      <point x="-1" y="680" type="move" name="_top"/>
    </contour>
  </outline>
</glyph>
<glyph name="uni06E3" format="1">
  <advance width="0"/>
  <unicode hex="06E3"/>
  <outline>
    <contour>
      <point x="75" y="-224" type="line"/>
      <point x="77" y="-231"/>
      <point x="79" y="-240"/>
      <point x="79" y="-246" type="curve"/>
      <point x="79" y="-246"/>
      <point x="67" y="-247"/>
      <point x="60" y="-244" type="curve" smooth="yes"/>
      <point x="51" y="-239"/>
      <point x="49" y="-229"/>
      <point x="48" y="-221" type="curve"/>
      <point x="44" y="-220" type="line"/>
      <point x="43" y="-229"/>
      <point x="42" y="-236"/>
      <point x="35" y="-241" type="curve" smooth="yes"/>
      <point x="30" y="-245"/>
      <point x="24" y="-247"/>
      <point x="15" y="-247" type="curve" smooth="yes"/>
      <point x="9" y="-247"/>
      <point x="4" y="-246"/>
      <point x="-1" y="-243" type="curve" smooth="yes"/>
      <point x="-6" y="-240"/>
      <point x="-9" y="-236"/>
      <point x="-11" y="-230" type="curve"/>
      <point x="-15" y="-234" type="line"/>
      <point x="-16" y="-236"/>
      <point x="-16" y="-239"/>
      <point x="-16" y="-243" type="curve" smooth="yes"/>
      <point x="-16" y="-253"/>
      <point x="-15" y="-256"/>
      <point x="-9" y="-266" type="curve" smooth="yes"/>
      <point x="-2" y="-276"/>
      <point x="4" y="-281"/>
      <point x="5" y="-284" type="curve"/>
      <point x="4" y="-290"/>
      <point x="-1" y="-301"/>
      <point x="-20" y="-306" type="curve" smooth="yes"/>
      <point x="-26" y="-308"/>
      <point x="-35" y="-310"/>
      <point x="-44" y="-310" type="curve" smooth="yes"/>
      <point x="-59" y="-310"/>
      <point x="-70" y="-306"/>
      <point x="-76" y="-301" type="curve" smooth="yes"/>
      <point x="-90" y="-291"/>
      <point x="-91" y="-279"/>
      <point x="-91" y="-274" type="curve" smooth="yes"/>
      <point x="-91" y="-261"/>
      <point x="-85" y="-251"/>
      <point x="-82" y="-246" type="curve"/>
      <point x="-86" y="-242" type="line"/>
      <point x="-91" y="-248"/>
      <point x="-95" y="-256"/>
      <point x="-97" y="-262" type="curve" smooth="yes"/>
      <point x="-101" y="-274"/>
      <point x="-101" y="-287"/>
      <point x="-101" y="-291" type="curve" smooth="yes"/>
      <point x="-101" y="-300"/>
      <point x="-99" y="-316"/>
      <point x="-86" y="-328" type="curve" smooth="yes"/>
      <point x="-78" y="-336"/>
      <point x="-65" y="-341"/>
      <point x="-46" y="-341" type="curve" smooth="yes"/>
      <point x="-30" y="-341"/>
      <point x="-14" y="-337"/>
      <point x="-2" y="-327" type="curve" smooth="yes"/>
      <point x="7" y="-319"/>
      <point x="15" y="-306"/>
      <point x="15" y="-287" type="curve" smooth="yes"/>
      <point x="15" y="-284"/>
      <point x="15" y="-280"/>
      <point x="15" y="-276" type="curve"/>
      <point x="22" y="-276"/>
      <point x="29" y="-275"/>
      <point x="34" y="-272" type="curve" smooth="yes"/>
      <point x="40" y="-269"/>
      <point x="45" y="-263"/>
      <point x="46" y="-257" type="curve"/>
      <point x="48" y="-261"/>
      <point x="50" y="-266"/>
      <point x="55" y="-269" type="curve" smooth="yes"/>
      <point x="58" y="-272"/>
      <point x="65" y="-276"/>
      <point x="70" y="-276" type="curve" smooth="yes"/>
      <point x="84" y="-276"/>
      <point x="93" y="-254"/>
      <point x="95" y="-250" type="curve" smooth="yes"/>
      <point x="96" y="-246"/>
      <point x="96" y="-239"/>
      <point x="96" y="-235" type="curve" smooth="yes"/>
      <point x="96" y="-221"/>
      <point x="94" y="-211"/>
      <point x="89" y="-206" type="curve"/>
    </contour>
    <contour>
      <point x="-3" y="-186" type="move" name="_bottom"/>
    </contour>
    <contour>
      <point x="-3" y="-341" type="move" name="bottom"/>
    </contour>
  </outline>
</glyph>
<glyph name="uni06E9" format="1">
  <advance width="527"/>
  <unicode hex="06E9"/>
  <outline>
    <contour>
      <point x="487" y="1" type="line"/>
      <point x="487" y="54"/>
      <point x="435" y="54"/>
      <point x="435" y="106" type="curve" smooth="yes"/>
      <point x="435" y="247" type="line"/>
      <point x="435" y="247"/>
      <point x="478" y="283"/>
      <point x="478" y="347" type="curve" smooth="yes"/>
      <point x="478" y="443"/>
      <point x="351" y="475"/>
      <point x="263" y="611" type="curve"/>
      <point x="176" y="475"/>
      <point x="49" y="443"/>
      <point x="49" y="347" type="curve" smooth="yes"/>
      <point x="49" y="283"/>
      <point x="92" y="247"/>
      <point x="92" y="247" type="curve"/>
      <point x="92" y="106" type="line" smooth="yes"/>
      <point x="92" y="54"/>
      <point x="40" y="54"/>
      <point x="40" y="1" type="curve"/>
    </contour>
    <contour>
      <point x="115" y="403"/>
      <point x="203" y="425"/>
      <point x="263" y="519" type="curve"/>
      <point x="324" y="425"/>
      <point x="412" y="403"/>
      <point x="412" y="336" type="curve" smooth="yes"/>
      <point x="412" y="291"/>
      <point x="383" y="266"/>
      <point x="383" y="266" type="curve"/>
      <point x="383" y="126" type="line" smooth="yes"/>
      <point x="383" y="90"/>
      <point x="419" y="90"/>
      <point x="419" y="53" type="curve"/>
      <point x="108" y="53" type="line"/>
      <point x="108" y="90"/>
      <point x="144" y="90"/>
      <point x="144" y="126" type="curve" smooth="yes"/>
      <point x="144" y="266" type="line"/>
      <point x="144" y="266"/>
      <point x="115" y="291"/>
      <point x="115" y="336" type="curve" smooth="yes"/>
    </contour>
    <contour>
      <point x="353" y="80" type="line"/>
      <point x="353" y="102"/>
      <point x="333" y="102"/>
      <point x="333" y="122" type="curve" smooth="yes"/>
      <point x="333" y="274" type="line"/>
      <point x="333" y="274"/>
      <point x="349" y="289"/>
      <point x="349" y="315" type="curve" smooth="yes"/>
      <point x="349" y="354"/>
      <point x="299" y="366"/>
      <point x="263" y="421" type="curve"/>
      <point x="228" y="366"/>
      <point x="178" y="354"/>
      <point x="178" y="315" type="curve" smooth="yes"/>
      <point x="178" y="289"/>
      <point x="194" y="274"/>
      <point x="194" y="274" type="curve"/>
      <point x="194" y="122" type="line" smooth="yes"/>
      <point x="194" y="102"/>
      <point x="174" y="102"/>
      <point x="174" y="80" type="curve"/>
    </contour>
    <contour>
      <point x="214" y="333"/>
      <point x="243" y="340"/>
      <point x="263" y="372" type="curve"/>
      <point x="284" y="340"/>
      <point x="313" y="333"/>
      <point x="313" y="311" type="curve" smooth="yes"/>
      <point x="313" y="296"/>
      <point x="304" y="287"/>
      <point x="304" y="287" type="curve"/>
      <point x="306" y="109" type="line"/>
      <point x="223" y="109" type="line"/>
      <point x="223" y="287" type="line"/>
      <point x="223" y="287"/>
      <point x="214" y="296"/>
      <point x="214" y="311" type="curve" smooth="yes"/>
    </contour>
  </outline>
</glyph>
<glyph name="uni06EA" format="1">
  <advance width="0"/>
  <unicode hex="06EA"/>
  <outline>
    <contour>
      <point x="63" y="-266" type="line"/>
      <point x="0" y="-203" type="line"/>
      <point x="-62" y="-266" type="line"/>
      <point x="0" y="-329" type="line"/>
    </contour>
    <contour>
      <point x="0" y="-234" type="line"/>
      <point x="33" y="-266" type="line"/>
      <point x="0" y="-299" type="line"/>
      <point x="-32" y="-266" type="line"/>
    </contour>
    <contour>
      <point x="0" y="-183" type="move" name="_bottom"/>
    </contour>
    <contour>
      <point x="0" y="-329" type="move" name="bottom"/>
    </contour>
  </outline>
</glyph>
<glyph name="uni08E8" format="1">
  <advance width="0"/>
  <unicode hex="08E8"/>
  <outline>
    <contour>
      <point x="83" y="815"/>
      <point x="77" y="839"/>
      <point x="62" y="847" type="curve" smooth="yes"/>
      <point x="49" y="854"/>
      <point x="33" y="847"/>
      <point x="27" y="838" type="curve"/>
      <point x="12" y="814" type="line"/>
      <point x="8" y="808"/>
      <point x="-2" y="786"/>
      <point x="26" y="772" type="curve" smooth="yes"/>
      <point x="40" y="765" type="line"/>
      <point x="25" y="747"/>
      <point x="5" y="735"/>
      <point x="-13" y="735" type="curve" smooth="yes"/>
      <point x="-28" y="735"/>
      <point x="-41" y="743"/>
      <point x="-48" y="760" type="curve"/>
      <point x="-55" y="755" type="line"/>
      <point x="-55" y="722"/>
      <point x="-38" y="701"/>
      <point x="-12" y="701" type="curve" smooth="yes"/>
      <point x="9" y="701"/>
      <point x="32" y="714"/>
      <point x="58" y="756" type="curve"/>
      <point x="77" y="747" type="line"/>
      <point x="86" y="781" type="line"/>
      <point x="73" y="788" type="line"/>
    </contour>
    <contour>
      <point x="25" y="811"/>
      <point x="30" y="817"/>
      <point x="30" y="817" type="curve" smooth="yes"/>
      <point x="30" y="817"/>
      <point x="38" y="824"/>
      <point x="48" y="819" type="curve" smooth="yes"/>
      <point x="58" y="814"/>
      <point x="56" y="806"/>
      <point x="54" y="794" type="curve"/>
      <point x="36" y="805" type="line" smooth="yes"/>
    </contour>
    <contour>
      <point x="-83" y="816"/>
      <point x="-77" y="792"/>
      <point x="-62" y="784" type="curve" smooth="yes"/>
      <point x="-49" y="777"/>
      <point x="-33" y="784"/>
      <point x="-27" y="793" type="curve"/>
      <point x="-12" y="817" type="line"/>
      <point x="-8" y="823"/>
      <point x="2" y="845"/>
      <point x="-26" y="859" type="curve" smooth="yes"/>
      <point x="-40" y="866" type="line"/>
      <point x="-25" y="884"/>
      <point x="-5" y="896"/>
      <point x="13" y="896" type="curve" smooth="yes"/>
      <point x="28" y="896"/>
      <point x="41" y="888"/>
      <point x="48" y="871" type="curve"/>
      <point x="55" y="876" type="line"/>
      <point x="55" y="909"/>
      <point x="38" y="930"/>
      <point x="12" y="930" type="curve" smooth="yes"/>
      <point x="-9" y="930"/>
      <point x="-32" y="917"/>
      <point x="-58" y="875" type="curve"/>
      <point x="-77" y="884" type="line"/>
      <point x="-86" y="850" type="line"/>
      <point x="-73" y="843" type="line"/>
    </contour>
    <contour>
      <point x="-25" y="820"/>
      <point x="-30" y="814"/>
      <point x="-30" y="814" type="curve" smooth="yes"/>
      <point x="-30" y="814"/>
      <point x="-38" y="807"/>
      <point x="-48" y="812" type="curve" smooth="yes"/>
      <point x="-58" y="817"/>
      <point x="-56" y="825"/>
      <point x="-54" y="837" type="curve"/>
      <point x="-36" y="826" type="line" smooth="yes"/>
    </contour>
    <contour>
      <point x="0" y="931" type="move" name="top"/>
    </contour>
    <contour>
      <point x="0" y="680" type="move" name="_top"/>
    </contour>
  </outline>
</glyph>
<glyph name="filledbox" format="1">
  <advance width="313"/>
  <unicode hex="25A0"/>
  <outline>
    <contour>
      <point x="283" y="359" type="line"/>
      <point x="30" y="359" type="line"/>
      <point x="30" y="106" type="line"/>
      <point x="283" y="106" type="line"/>
    </contour>
  </outline>
</glyph>
<glyph name="uni25C7" format="1">
  <advance width="417"/>
  <unicode hex="25C7"/>
  <outline>
    <contour>
      <point x="387" y="53" type="line"/>
      <point x="208" y="231" type="line"/>
      <point x="30" y="53" type="line"/>
      <point x="209" y="-126" type="line"/>
    </contour>
    <contour>
      <point x="209" y="152" type="line"/>
      <point x="309" y="53" type="line"/>
      <point x="209" y="-47" type="line"/>
      <point x="110" y="53" type="line"/>
    </contour>
  </outline>
</glyph>
<glyph name="uniFBBB" format="1">
  <advance width="0"/>
  <unicode hex="FBBB"/>
  <outline>
    <contour>
      <point x="-85" y="-263"/>
      <point x="-66" y="-280"/>
      <point x="-42" y="-305" type="curve"/>
      <point x="-22" y="-285"/>
      <point x="-10" y="-272"/>
      <point x="0" y="-259" type="curve"/>
      <point x="16" y="-270"/>
      <point x="32" y="-285"/>
      <point x="51" y="-305" type="curve"/>
      <point x="79" y="-278"/>
      <point x="91" y="-262"/>
      <point x="104" y="-244" type="curve"/>
      <point x="94" y="-228"/>
      <point x="74" y="-210"/>
      <point x="54" y="-197" type="curve"/>
      <point x="80" y="-172"/>
      <point x="92" y="-157"/>
      <point x="104" y="-140" type="curve"/>
      <point x="92" y="-121"/>
      <point x="63" y="-97"/>
      <point x="40" y="-85" type="curve"/>
      <point x="3" y="-129" type="line"/>
      <point x="-11" y="-113"/>
      <point x="-34" y="-95"/>
      <point x="-53" y="-85" type="curve"/>
      <point x="-66" y="-101"/>
      <point x="-91" y="-130"/>
      <point x="-106" y="-147" type="curve"/>
      <point x="-88" y="-157"/>
      <point x="-72" y="-170"/>
      <point x="-53" y="-189" type="curve"/>
      <point x="-66" y="-205"/>
      <point x="-91" y="-234"/>
      <point x="-106" y="-251" type="curve"/>
    </contour>
    <contour>
      <point x="-21" y="-179"/>
      <point x="-9" y="-167"/>
      <point x="0" y="-155" type="curve"/>
      <point x="13" y="-163"/>
      <point x="25" y="-175"/>
      <point x="40" y="-189" type="curve"/>
      <point x="3" y="-233" type="line"/>
      <point x="-8" y="-220"/>
      <point x="-23" y="-207"/>
      <point x="-39" y="-197" type="curve"/>
    </contour>
    <contour>
      <point x="-1" y="-65" type="move" name="_bottom"/>
    </contour>
    <contour>
      <point x="-1" y="-325" type="move" name="bottom"/>
    </contour>
  </outline>
</glyph>
<glyph name="uniFBBC" format="1">
  <advance width="0"/>
  <unicode hex="FBBC"/>
  <outline>
    <contour>
      <point x="38" y="-326" type="line"/>
      <point x="52" y="-289"/>
      <point x="49" y="-259"/>
      <point x="45" y="-244" type="curve" smooth="yes"/>
      <point x="41" y="-229"/>
      <point x="34" y="-215"/>
      <point x="24" y="-201" type="curve"/>
      <point x="4" y="-235" type="line"/>
      <point x="14" y="-247"/>
      <point x="19" y="-261"/>
      <point x="22" y="-274" type="curve" smooth="yes"/>
      <point x="28" y="-304"/>
      <point x="23" y="-321"/>
      <point x="21" y="-326" type="curve"/>
    </contour>
    <contour>
      <point x="-19" y="-326" type="line"/>
      <point x="-5" y="-289"/>
      <point x="-8" y="-259"/>
      <point x="-12" y="-244" type="curve" smooth="yes"/>
      <point x="-16" y="-229"/>
      <point x="-23" y="-215"/>
      <point x="-33" y="-201" type="curve"/>
      <point x="-53" y="-235" type="line"/>
      <point x="-43" y="-247"/>
      <point x="-38" y="-261"/>
      <point x="-35" y="-274" type="curve" smooth="yes"/>
      <point x="-29" y="-304"/>
      <point x="-34" y="-321"/>
      <point x="-36" y="-326" type="curve"/>
    </contour>
    <contour>
      <point x="1" y="-180" type="move" name="_bottom"/>
    </contour>
    <contour>
      <point x="-3" y="-327" type="move" name="bottom"/>
    </contour>
  </outline>
</glyph>
<glyph name="uniFBBD" format="1">
  <advance width="0"/>
  <unicode hex="FBBD"/>
  <outline>
    <contour>
      <point x="28" y="832"/>
      <point x="40" y="847"/>
      <point x="52" y="865" type="curve"/>
      <point x="40" y="883"/>
      <point x="11" y="907"/>
      <point x="-12" y="920" type="curve"/>
      <point x="-24" y="903"/>
      <point x="-49" y="874"/>
      <point x="-65" y="858" type="curve"/>
      <point x="-47" y="847"/>
      <point x="-31" y="834"/>
      <point x="-12" y="815" type="curve"/>
      <point x="-25" y="798"/>
      <point x="-50" y="770"/>
      <point x="-65" y="754" type="curve"/>
      <point x="-44" y="742"/>
      <point x="-25" y="725"/>
      <point x="-1" y="700" type="curve"/>
      <point x="27" y="727"/>
      <point x="39" y="743"/>
      <point x="52" y="761" type="curve"/>
      <point x="42" y="776"/>
      <point x="22" y="794"/>
      <point x="3" y="807" type="curve"/>
    </contour>
    <contour>
      <point x="-7" y="940" type="move" name="top"/>
    </contour>
    <contour>
      <point x="-7" y="680" type="move" name="_top"/>
    </contour>
  </outline>
</glyph>
<glyph name="uniFD2A" format="1">
  <advance width="834"/>
  <unicode hex="FD2A"/>
  <outline>
    <contour>
      <point x="5" y="-203"/>
      <point x="24" y="-237"/>
      <point x="31" y="-257" type="curve"/>
      <point x="34" y="-257" type="line"/>
      <point x="34" y="-200" type="line"/>
      <point x="49" y="-200"/>
      <point x="112" y="-195"/>
      <point x="152" y="-167" type="curve" smooth="yes"/>
      <point x="186" y="-144"/>
      <point x="213" y="-110"/>
      <point x="228" y="-69" type="curve" smooth="yes"/>
      <point x="239" y="-37"/>
      <point x="244" y="8"/>
      <point x="240" y="45" type="curve"/>
      <point x="280" y="53"/>
      <point x="296" y="56"/>
      <point x="337" y="63" type="curve"/>
      <point x="344" y="44"/>
      <point x="355" y="29"/>
      <point x="370" y="19" type="curve" smooth="yes"/>
      <point x="388" y="6"/>
      <point x="410" y="0"/>
      <point x="435" y="0" type="curve" smooth="yes"/>
      <point x="464" y="0"/>
      <point x="493" y="9"/>
      <point x="509" y="23" type="curve" smooth="yes"/>
      <point x="526" y="37"/>
      <point x="536" y="56"/>
      <point x="540" y="77" type="curve"/>
      <point x="544" y="63"/>
      <point x="549" y="48"/>
      <point x="558" y="36" type="curve" smooth="yes"/>
      <point x="570" y="21"/>
      <point x="591" y="6"/>
      <point x="624" y="6" type="curve" smooth="yes"/>
      <point x="668" y="6"/>
      <point x="701" y="27"/>
      <point x="706" y="67" type="curve"/>
      <point x="714" y="49"/>
      <point x="723" y="35"/>
      <point x="734" y="25" type="curve" smooth="yes"/>
      <point x="752" y="8"/>
      <point x="775" y="0"/>
      <point x="804" y="0" type="curve" smooth="yes"/>
      <point x="834" y="0" type="line"/>
      <point x="834" y="106" type="line"/>
      <point x="800" y="106" type="line" smooth="yes"/>
      <point x="761" y="106"/>
      <point x="738" y="124"/>
      <point x="724" y="148" type="curve"/>
      <point x="715" y="166"/>
      <point x="710" y="188"/>
      <point x="709" y="207" type="curve"/>
      <point x="695" y="215" type="line"/>
      <point x="695" y="190"/>
      <point x="692" y="163"/>
      <point x="681" y="144" type="curve"/>
      <point x="672" y="126"/>
      <point x="655" y="112"/>
      <point x="627" y="112" type="curve" smooth="yes"/>
      <point x="589" y="112"/>
      <point x="569" y="130"/>
      <point x="559" y="154" type="curve" smooth="yes"/>
      <point x="553" y="169"/>
      <point x="549" y="187"/>
      <point x="548" y="207" type="curve"/>
      <point x="533" y="215" type="line"/>
      <point x="533" y="209"/>
      <point x="533" y="183"/>
      <point x="520" y="159" type="curve"/>
      <point x="515" y="148"/>
      <point x="507" y="138"/>
      <point x="496" y="130" type="curve"/>
      <point x="483" y="119"/>
      <point x="463" y="112"/>
      <point x="437" y="112" type="curve" smooth="yes"/>
      <point x="420" y="112"/>
      <point x="403" y="115"/>
      <point x="390" y="122" type="curve" smooth="yes"/>
      <point x="377" y="129"/>
      <point x="367" y="141"/>
      <point x="361" y="158" type="curve"/>
      <point x="305" y="152"/>
      <point x="243" y="140"/>
      <point x="180" y="122" type="curve"/>
      <point x="180" y="42" type="line" smooth="yes"/>
      <point x="180" y="-11"/>
      <point x="159" y="-45"/>
      <point x="111" y="-72" type="curve" smooth="yes"/>
      <point x="67" y="-98"/>
      <point x="-7" y="-100"/>
      <point x="-40" y="-101" type="curve"/>
      <point x="-40" y="-206" type="line"/>
    </contour>
    <contour>
      <point x="432" y="0" type="move" name="caret_1"/>
    </contour>
    <contour>
      <point x="526" y="-34" type="move" name="bottom_1"/>
    </contour>
    <contour>
      <point x="533" y="245" type="move" name="top_1"/>
    </contour>
    <contour>
      <point x="180" y="162" type="move" name="top_2"/>
    </contour>
    <contour>
      <point x="53" y="24" type="move" name="center_2"/>
    </contour>
    <contour>
      <point x="54" y="-277" type="move" name="bottom_2"/>
    </contour>
  </outline>
</glyph>
<glyph name="uniFE8E" format="1">
  <advance width="229"/>
  <unicode hex="FE8E"/>
  <outline>
    <contour>
      <point x="148" y="106"/>
      <point x="135" y="116"/>
      <point x="126" y="131" type="curve" smooth="yes"/>
      <point x="115" y="151"/>
      <point x="113" y="180"/>
      <point x="112" y="202" type="curve" smooth="yes"/>
      <point x="110" y="248"/>
      <point x="108" y="361"/>
      <point x="108" y="392" type="curve"/>
      <point x="108" y="404"/>
      <point x="104" y="505"/>
      <point x="103" y="525" type="curve" smooth="yes"/>
      <point x="101" y="586"/>
      <point x="99" y="655"/>
      <point x="97" y="681" type="curve"/>
      <point x="84" y="681" type="line"/>
      <point x="70" y="657"/>
      <point x="48" y="630"/>
      <point x="20" y="599" type="curve"/>
      <point x="21" y="590"/>
      <point x="36" y="544"/>
      <point x="42" y="435" type="curve" smooth="yes"/>
      <point x="45" y="369"/>
      <point x="46" y="319"/>
      <point x="49" y="138" type="curve" smooth="yes"/>
      <point x="50" y="89"/>
      <point x="63" y="56"/>
      <point x="82" y="36" type="curve" smooth="yes"/>
      <point x="108" y="7"/>
      <point x="144" y="0"/>
      <point x="176" y="0" type="curve" smooth="yes"/>
      <point x="229" y="0" type="line"/>
      <point x="229" y="106" type="line"/>
      <point x="169" y="106" type="line" smooth="yes"/>
    </contour>
    <contour>
      <point x="71" y="682" type="move" name="top"/>
    </contour>
    <contour>
      <point x="90" y="-20" type="move" name="bottom"/>
    </contour>
  </outline>
</glyph>
<glyph name="uniFEBC" format="1">
  <advance width="680"/>
  <unicode hex="FEBC"/>
  <outline>
    <contour>
      <point x="577" y="106"/>
      <point x="561" y="109"/>
      <point x="550" y="115" type="curve"/>
      <point x="559" y="132"/>
      <point x="566" y="152"/>
      <point x="573" y="176" type="curve"/>
      <point x="563" y="202"/>
      <point x="552" y="223"/>
      <point x="538" y="240" type="curve" smooth="yes"/>
      <point x="515" y="268"/>
      <point x="483" y="283"/>
      <point x="437" y="283" type="curve" smooth="yes"/>
      <point x="392" y="283"/>
      <point x="346" y="257"/>
      <point x="306" y="222" type="curve" smooth="yes"/>
      <point x="264" y="186"/>
      <point x="228" y="141"/>
      <point x="207" y="106" type="curve"/>
      <point x="192" y="106"/>
      <point x="166" y="114"/>
      <point x="152" y="130" type="curve" smooth="yes"/>
      <point x="144" y="141"/>
      <point x="141" y="157"/>
      <point x="142" y="176" type="curve" smooth="yes"/>
      <point x="142" y="176"/>
      <point x="127" y="184"/>
      <point x="127" y="184" type="curve"/>
      <point x="124" y="173"/>
      <point x="121" y="144"/>
      <point x="97" y="125" type="curve" smooth="yes"/>
      <point x="84" y="114"/>
      <point x="65" y="106"/>
      <point x="36" y="106" type="curve" smooth="yes"/>
      <point x="36" y="106"/>
      <point x="-17" y="106"/>
      <point x="-17" y="106" type="curve" smooth="yes"/>
      <point x="-46" y="106"/>
      <point x="-70" y="82"/>
      <point x="-70" y="53" type="curve" smooth="yes"/>
      <point x="-70" y="24"/>
      <point x="-46" y="0"/>
      <point x="-17" y="0" type="curve" smooth="yes"/>
      <point x="18" y="0" type="line" smooth="yes"/>
      <point x="101" y="0"/>
      <point x="119" y="44"/>
      <point x="123" y="55" type="curve"/>
      <point x="131" y="37"/>
      <point x="141" y="24"/>
      <point x="162" y="12" type="curve"/>
      <point x="159" y="4"/>
      <point x="149" y="-17"/>
      <point x="149" y="-17" type="curve"/>
      <point x="169" y="-39" type="line"/>
      <point x="192" y="0" type="line"/>
      <point x="236" y="-6"/>
      <point x="274" y="-10"/>
      <point x="308" y="-10" type="curve" smooth="yes"/>
      <point x="396" y="-10"/>
      <point x="460" y="18"/>
      <point x="501" y="53" type="curve" smooth="yes"/>
      <point x="515" y="23"/>
      <point x="547" y="0"/>
      <point x="593" y="0" type="curve" smooth="yes"/>
      <point x="680" y="0" type="line"/>
      <point x="680" y="106" type="line"/>
      <point x="597" y="106" type="line" smooth="yes"/>
    </contour>
    <contour>
      <point x="437" y="199"/>
      <point x="455" y="192"/>
      <point x="469" y="183" type="curve" smooth="yes"/>
      <point x="491" y="167"/>
      <point x="500" y="147"/>
      <point x="500" y="147" type="curve"/>
      <point x="497" y="143"/>
      <point x="469" y="102"/>
      <point x="335" y="102" type="curve" smooth="yes"/>
      <point x="251" y="102" type="line" smooth="yes"/>
      <point x="251" y="102"/>
      <point x="270" y="133"/>
      <point x="305" y="159" type="curve" smooth="yes"/>
      <point x="332" y="180"/>
      <point x="369" y="199"/>
      <point x="413" y="199" type="curve" smooth="yes"/>
    </contour>
    <contour>
      <point x="419" y="308" type="move" name="top"/>
    </contour>
    <contour>
      <point x="308" y="-34" type="move" name="bottom"/>
    </contour>
  </outline>
</glyph>
<glyph name="uniFEC4" format="1">
  <advance width="505"/>
  <unicode hex="FEC4"/>
  <outline>
    <contour>
      <point x="402" y="106"/>
      <point x="387" y="109"/>
      <point x="376" y="114" type="curve"/>
      <point x="384" y="132"/>
      <point x="391" y="152"/>
      <point x="398" y="176" type="curve"/>
      <point x="398" y="176"/>
      <point x="390" y="214"/>
      <point x="359" y="245" type="curve" smooth="yes"/>
      <point x="340" y="264"/>
      <point x="310" y="283"/>
      <point x="266" y="283" type="curve" smooth="yes"/>
      <point x="216" y="283"/>
      <point x="171" y="258"/>
      <point x="123" y="214" type="curve"/>
      <point x="135" y="279"/>
      <point x="134" y="344"/>
      <point x="127" y="397" type="curve" smooth="yes"/>
      <point x="122" y="438"/>
      <point x="107" y="515"/>
      <point x="104" y="532" type="curve" smooth="yes"/>
      <point x="99" y="563"/>
      <point x="106" y="576"/>
      <point x="125" y="594" type="curve"/>
      <point x="92" y="617"/>
      <point x="75" y="642"/>
      <point x="59" y="681" type="curve"/>
      <point x="29" y="677"/>
      <point x="16" y="652"/>
      <point x="10" y="628" type="curve" smooth="yes"/>
      <point x="4" y="603"/>
      <point x="6" y="579"/>
      <point x="6" y="579" type="curve"/>
      <point x="21" y="565" type="line"/>
      <point x="42" y="514"/>
      <point x="58" y="447"/>
      <point x="66" y="386" type="curve" smooth="yes"/>
      <point x="74" y="324"/>
      <point x="78" y="241"/>
      <point x="78" y="167" type="curve"/>
      <point x="60" y="146"/>
      <point x="44" y="125"/>
      <point x="33" y="106" type="curve"/>
      <point x="-17" y="106" type="line" smooth="yes"/>
      <point x="-46" y="106"/>
      <point x="-70" y="82"/>
      <point x="-70" y="53" type="curve" smooth="yes"/>
      <point x="-70" y="24"/>
      <point x="-46" y="0"/>
      <point x="-17" y="0" type="curve" smooth="yes"/>
      <point x="134" y="0" type="line" smooth="yes"/>
      <point x="198" y="0"/>
      <point x="241" y="10"/>
      <point x="276" y="24" type="curve" smooth="yes"/>
      <point x="314" y="39"/>
      <point x="327" y="53"/>
      <point x="327" y="53" type="curve"/>
      <point x="330" y="44"/>
      <point x="351" y="0"/>
      <point x="418" y="0" type="curve" smooth="yes"/>
      <point x="505" y="0" type="line"/>
      <point x="505" y="106" type="line"/>
      <point x="422" y="106" type="line" smooth="yes"/>
    </contour>
    <contour>
      <point x="77" y="106" type="line" smooth="yes"/>
      <point x="77" y="106"/>
      <point x="91" y="128"/>
      <point x="115" y="150" type="curve" smooth="yes"/>
      <point x="139" y="172"/>
      <point x="184" y="203"/>
      <point x="238" y="203" type="curve" smooth="yes"/>
      <point x="263" y="203"/>
      <point x="283" y="196"/>
      <point x="298" y="184" type="curve" smooth="yes"/>
      <point x="308" y="176"/>
      <point x="317" y="165"/>
      <point x="325" y="151" type="curve"/>
      <point x="322" y="147"/>
      <point x="294" y="106"/>
      <point x="161" y="106" type="curve" smooth="yes"/>
    </contour>
    <contour>
      <point x="257" y="308" type="move" name="top"/>
    </contour>
    <contour>
      <point x="134" y="-35" type="move" name="bottom"/>
    </contour>
  </outline>
</glyph>
<glyph name="uniFEE4" format="1">
  <advance width="436"/>
  <unicode hex="FEE4"/>
  <outline>
    <contour>
      <point x="363" y="106"/>
      <point x="341" y="112"/>
      <point x="327" y="128" type="curve" smooth="yes"/>
      <point x="311" y="145"/>
      <point x="304" y="172"/>
      <point x="304" y="214" type="curve"/>
      <point x="304" y="267" type="line"/>
      <point x="236" y="267"/>
      <point x="200" y="249"/>
      <point x="176" y="226" type="curve" smooth="yes"/>
      <point x="148" y="198"/>
      <point x="137" y="161"/>
      <point x="112" y="136" type="curve" smooth="yes"/>
      <point x="95" y="118"/>
      <point x="70" y="106"/>
      <point x="28" y="106" type="curve" smooth="yes"/>
      <point x="-17" y="106" type="line" smooth="yes"/>
      <point x="-46" y="106"/>
      <point x="-70" y="82"/>
      <point x="-70" y="53" type="curve" smooth="yes"/>
      <point x="-70" y="24"/>
      <point x="-46" y="0"/>
      <point x="-17" y="0" type="curve" smooth="yes"/>
      <point x="5" y="0" type="line" smooth="yes"/>
      <point x="44" y="0"/>
      <point x="69" y="9"/>
      <point x="88" y="24" type="curve" smooth="yes"/>
      <point x="108" y="39"/>
      <point x="121" y="61"/>
      <point x="136" y="86" type="curve"/>
      <point x="136" y="33" type="line"/>
      <point x="199" y="16"/>
      <point x="258" y="-11"/>
      <point x="310" y="-51" type="curve"/>
      <point x="310" y="21" type="line"/>
      <point x="330" y="7"/>
      <point x="358" y="0"/>
      <point x="395" y="0" type="curve" smooth="yes"/>
      <point x="436" y="0" type="line"/>
      <point x="436" y="106" type="line"/>
      <point x="395" y="106" type="line" smooth="yes"/>
    </contour>
    <contour>
      <point x="263" y="130"/>
      <point x="265" y="103"/>
      <point x="271" y="81" type="curve"/>
      <point x="238" y="101"/>
      <point x="203" y="117"/>
      <point x="166" y="129" type="curve"/>
      <point x="186" y="152"/>
      <point x="216" y="168"/>
      <point x="263" y="161" type="curve"/>
    </contour>
    <contour>
      <point x="177" y="297" type="move" name="top"/>
    </contour>
    <contour>
      <point x="166" y="-44" type="move" name="bottom"/>
    </contour>
  </outline>
</glyph>
<glyph name="uniFEEA" format="1">
  <advance width="404"/>
  <unicode hex="FEEA"/>
  <outline>
    <contour>
      <point x="343" y="106"/>
      <point x="326" y="107"/>
      <point x="311" y="127" type="curve" smooth="yes"/>
      <point x="303" y="138"/>
      <point x="296" y="152"/>
      <point x="289" y="181" type="curve" smooth="yes"/>
      <point x="279" y="223"/>
      <point x="254" y="335"/>
      <point x="237" y="411" type="curve" smooth="yes"/>
      <point x="210" y="390"/>
      <point x="192" y="372"/>
      <point x="195" y="336" type="curve"/>
      <point x="164" y="314"/>
      <point x="128" y="311"/>
      <point x="100" y="289" type="curve" smooth="yes"/>
      <point x="83" y="276"/>
      <point x="70" y="257"/>
      <point x="70" y="227" type="curve"/>
      <point x="70" y="150" type="line"/>
      <point x="70" y="134"/>
      <point x="101" y="100"/>
      <point x="128" y="100" type="curve"/>
      <point x="199" y="101" type="line"/>
      <point x="231" y="158" type="line"/>
      <point x="237" y="127"/>
      <point x="243" y="100"/>
      <point x="246" y="86" type="curve" smooth="yes"/>
      <point x="255" y="45"/>
      <point x="274" y="0"/>
      <point x="352" y="0" type="curve" smooth="yes"/>
      <point x="376" y="0"/>
      <point x="385" y="0"/>
      <point x="404" y="0" type="curve"/>
      <point x="404" y="106" type="line"/>
      <point x="357" y="106" type="line"/>
    </contour>
    <contour>
      <point x="123" y="195" type="line"/>
      <point x="114" y="195"/>
      <point x="103" y="199"/>
      <point x="97" y="209" type="curve"/>
      <point x="116" y="241"/>
      <point x="149" y="254"/>
      <point x="181" y="259" type="curve"/>
      <point x="204" y="290" type="line"/>
      <point x="204" y="290"/>
      <point x="216" y="230"/>
      <point x="220" y="210" type="curve"/>
      <point x="208" y="197"/>
      <point x="200" y="195"/>
      <point x="170" y="195" type="curve"/>
    </contour>
    <contour>
      <point x="157" y="416" type="move" name="top"/>
    </contour>
    <contour>
      <point x="181" y="-34" type="move" name="bottom"/>
    </contour>
  </outline>
</glyph>
<glyph name="circumflex.arabic" format="1">
  <advance width="0"/>
  <outline>
    <contour>
      <point x="71" y="736" type="line"/>
      <point x="58" y="747"/>
      <point x="45" y="768"/>
      <point x="34" y="791" type="curve" smooth="yes"/>
      <point x="22" y="815"/>
      <point x="13" y="842"/>
      <point x="9" y="861" type="curve"/>
      <point x="-9" y="861" type="line"/>
      <point x="-12" y="842"/>
      <point x="-20" y="819"/>
      <point x="-30" y="797" type="curve" smooth="yes"/>
      <point x="-42" y="771"/>
      <point x="-57" y="748"/>
      <point x="-71" y="736" type="curve"/>
      <point x="-56" y="700" type="line"/>
      <point x="-42" y="711"/>
      <point x="-31" y="727"/>
      <point x="-21" y="746" type="curve" smooth="yes"/>
      <point x="-11" y="766"/>
      <point x="-4" y="788"/>
      <point x="0" y="809" type="curve"/>
      <point x="0" y="794"/>
      <point x="10" y="767"/>
      <point x="24" y="743" type="curve" smooth="yes"/>
      <point x="34" y="725"/>
      <point x="46" y="708"/>
      <point x="56" y="700" type="curve"/>
    </contour>
    <contour>
      <point x="0" y="861" type="move" name="top"/>
    </contour>
    <contour>
      <point x="0" y="680" type="move" name="_top"/>
    </contour>
  </outline>
</glyph>
<glyph name="gafbarar" format="1">
  <advance width="0"/>
  <outline>
    <contour>
      <point x="125" y="870" type="line"/>
      <point x="125" y="870"/>
      <point x="-96" y="758"/>
      <point x="-96" y="758" type="curve"/>
      <point x="-130" y="705" type="line"/>
      <point x="-123" y="700" type="line"/>
      <point x="-83" y="727"/>
      <point x="82" y="804"/>
      <point x="116" y="828" type="curve"/>
    </contour>
    <contour>
      <point x="-2" y="870" type="move" name="top"/>
    </contour>
    <contour>
      <point x="-2" y="750" type="move" name="_top"/>
    </contour>
  </outline>
</glyph>
<glyph name="threedotsdowncenterar" format="1">
  <advance width="0"/>
  <outline>
    <contour>
      <point x="-82" y="256"/>
      <point x="-64" y="239"/>
      <point x="-39" y="214" type="curve"/>
      <point x="-19" y="234"/>
      <point x="-8" y="247"/>
      <point x="2" y="260" type="curve"/>
      <point x="18" y="248"/>
      <point x="34" y="234"/>
      <point x="53" y="214" type="curve"/>
      <point x="81" y="241"/>
      <point x="93" y="257"/>
      <point x="106" y="275" type="curve"/>
      <point x="94" y="294"/>
      <point x="66" y="318"/>
      <point x="42" y="330" type="curve"/>
      <point x="34" y="318"/>
      <point x="19" y="301"/>
      <point x="5" y="286" type="curve"/>
      <point x="-9" y="302"/>
      <point x="-31" y="320"/>
      <point x="-50" y="330" type="curve"/>
      <point x="-63" y="313"/>
      <point x="-88" y="285"/>
      <point x="-103" y="268" type="curve"/>
    </contour>
    <contour>
      <point x="-29" y="149"/>
      <point x="-10" y="132"/>
      <point x="14" y="107" type="curve"/>
      <point x="42" y="135"/>
      <point x="54" y="150"/>
      <point x="67" y="168" type="curve"/>
      <point x="55" y="187"/>
      <point x="26" y="211"/>
      <point x="3" y="224" type="curve"/>
      <point x="-9" y="207"/>
      <point x="-35" y="178"/>
      <point x="-50" y="161" type="curve"/>
    </contour>
    <contour>
      <point x="1" y="257" type="move" name="_center"/>
    </contour>
  </outline>
</glyph>
<glyph name="uni06430643" format="1">
  <advance width="1197"/>
  <outline>
    <contour>
      <point x="496" y="197"/>
      <point x="507" y="217"/>
      <point x="514" y="249" type="curve" smooth="yes"/>
      <point x="517" y="262"/>
      <point x="512" y="280"/>
      <point x="487" y="281" type="curve"/>
      <point x="449" y="281"/>
      <point x="443" y="293"/>
      <point x="443" y="293" type="curve"/>
      <point x="444" y="313"/>
      <point x="491" y="315"/>
      <point x="491" y="315" type="curve"/>
      <point x="508" y="369" type="line"/>
      <point x="486" y="364"/>
      <point x="460" y="353"/>
      <point x="441" y="339" type="curve" smooth="yes"/>
      <point x="421" y="324"/>
      <point x="407" y="305"/>
      <point x="407" y="282" type="curve" smooth="yes"/>
      <point x="407" y="267"/>
      <point x="412" y="256"/>
      <point x="419" y="248" type="curve"/>
      <point x="428" y="240"/>
      <point x="440" y="237"/>
      <point x="454" y="237" type="curve" smooth="yes"/>
      <point x="475" y="237"/>
      <point x="477" y="230"/>
      <point x="477" y="230" type="curve"/>
      <point x="460" y="206"/>
      <point x="374" y="203"/>
      <point x="364" y="204" type="curve"/>
      <point x="356" y="188" type="line"/>
      <point x="363" y="185"/>
      <point x="395" y="177"/>
      <point x="409" y="175" type="curve" smooth="yes"/>
      <point x="438" y="171"/>
      <point x="463" y="171"/>
      <point x="482" y="186" type="curve" smooth="yes"/>
    </contour>
    <contour>
      <point x="1187" y="657" type="line"/>
      <point x="1141" y="628"/>
      <point x="1122" y="617"/>
      <point x="1046" y="580" type="curve" smooth="yes"/>
      <point x="1005" y="560"/>
      <point x="960" y="538"/>
      <point x="917" y="514" type="curve" smooth="yes"/>
      <point x="893" y="500"/>
      <point x="829" y="464"/>
      <point x="801" y="431" type="curve"/>
      <point x="792" y="509"/>
      <point x="781" y="600"/>
      <point x="771" y="681" type="curve"/>
      <point x="708" y="607" type="line"/>
      <point x="713" y="563"/>
      <point x="756" y="203"/>
      <point x="761" y="160" type="curve"/>
      <point x="712" y="129"/>
      <point x="606" y="85"/>
      <point x="393" y="85" type="curve" smooth="yes"/>
      <point x="306" y="85"/>
      <point x="244" y="94"/>
      <point x="201" y="110" type="curve" smooth="yes"/>
      <point x="140" y="134"/>
      <point x="118" y="172"/>
      <point x="118" y="220" type="curve" smooth="yes"/>
      <point x="118" y="255"/>
      <point x="134" y="293"/>
      <point x="142" y="306" type="curve"/>
      <point x="126" y="321" type="line"/>
      <point x="97" y="295"/>
      <point x="70" y="218"/>
      <point x="70" y="161" type="curve" smooth="yes"/>
      <point x="70" y="126"/>
      <point x="81" y="84"/>
      <point x="114" y="49" type="curve" smooth="yes"/>
      <point x="154" y="8"/>
      <point x="225" y="-23"/>
      <point x="350" y="-23" type="curve" smooth="yes"/>
      <point x="581" y="-23"/>
      <point x="704" y="27"/>
      <point x="777" y="90" type="curve"/>
      <point x="791" y="40"/>
      <point x="821" y="0"/>
      <point x="902" y="0" type="curve"/>
      <point x="971" y="0"/>
      <point x="1012" y="21"/>
      <point x="1034" y="55" type="curve" smooth="yes"/>
      <point x="1054" y="84"/>
      <point x="1063" y="123"/>
      <point x="1063" y="170" type="curve" smooth="yes"/>
      <point x="1063" y="222"/>
      <point x="1034" y="280"/>
      <point x="992" y="329" type="curve" smooth="yes"/>
      <point x="963" y="362"/>
      <point x="928" y="390"/>
      <point x="892" y="409" type="curve"/>
      <point x="906" y="419"/>
      <point x="968" y="449"/>
      <point x="1026" y="475" type="curve" smooth="yes"/>
      <point x="1080" y="500"/>
      <point x="1135" y="526"/>
      <point x="1162" y="544" type="curve"/>
    </contour>
    <contour>
      <point x="987" y="125"/>
      <point x="959" y="106"/>
      <point x="905" y="106" type="curve"/>
      <point x="884" y="106"/>
      <point x="869" y="117"/>
      <point x="856" y="133" type="curve" smooth="yes"/>
      <point x="841" y="154"/>
      <point x="831" y="190"/>
      <point x="824" y="244" type="curve" smooth="yes"/>
      <point x="822" y="260"/>
      <point x="818" y="294"/>
      <point x="813" y="338" type="curve"/>
      <point x="853" y="323"/>
      <point x="892" y="300"/>
      <point x="925" y="271" type="curve" smooth="yes"/>
      <point x="963" y="237"/>
      <point x="993" y="196"/>
      <point x="1005" y="151" type="curve"/>
    </contour>
    <contour>
      <point x="594" y="0" type="move" name="caret_1"/>
    </contour>
    <contour>
      <point x="902" y="-34" type="move" name="bottom_1"/>
    </contour>
    <contour>
      <point x="946" y="592" type="move" name="top_1"/>
    </contour>
    <contour>
      <point x="451" y="389" type="move" name="top_2"/>
    </contour>
    <contour>
      <point x="393" y="-55" type="move" name="bottom_2"/>
    </contour>
  </outline>
</glyph>
<glyph name="uni0664.above" format="1">
  <advance width="0"/>
  <outline>
    <contour>
      <point x="15" y="944"/>
      <point x="-5" y="959"/>
      <point x="-25" y="959" type="curve" smooth="yes"/>
      <point x="-41" y="959"/>
      <point x="-53" y="951"/>
      <point x="-61" y="939" type="curve" smooth="yes"/>
      <point x="-70" y="924"/>
      <point x="-72" y="905"/>
      <point x="-66" y="888" type="curve" smooth="yes"/>
      <point x="-59" y="867"/>
      <point x="-50" y="847"/>
      <point x="-42" y="814" type="curve" smooth="yes"/>
      <point x="-35" y="787"/>
      <point x="-28" y="751"/>
      <point x="-24" y="700" type="curve"/>
      <point x="-20" y="700" type="line"/>
      <point x="-20" y="700"/>
      <point x="-8" y="725"/>
      <point x="-7" y="749" type="curve" smooth="yes"/>
      <point x="-6" y="788"/>
      <point x="-10" y="817"/>
      <point x="-16" y="840" type="curve" smooth="yes"/>
      <point x="-23" y="869"/>
      <point x="-32" y="890"/>
      <point x="-36" y="912" type="curve"/>
      <point x="-28" y="914"/>
      <point x="9" y="914"/>
      <point x="19" y="870" type="curve"/>
      <point x="25" y="867" type="line"/>
      <point x="31" y="889"/>
      <point x="45" y="910"/>
      <point x="67" y="912" type="curve"/>
      <point x="67" y="912"/>
      <point x="76" y="959"/>
      <point x="76" y="959" type="curve"/>
      <point x="55" y="955"/>
      <point x="35" y="943"/>
      <point x="27" y="918" type="curve"/>
    </contour>
    <contour>
      <point x="-21" y="979" type="move" name="top"/>
    </contour>
    <contour>
      <point x="-21" y="680" type="move" name="_top"/>
    </contour>
  </outline>
</glyph>
<glyph name="uni066E0645.fina" format="1">
  <advance width="576"/>
  <outline>
    <contour>
      <point x="66" y="-205"/>
      <point x="76" y="-257"/>
      <point x="88" y="-313" type="curve" smooth="yes"/>
      <point x="103" y="-380"/>
      <point x="121" y="-463"/>
      <point x="116" y="-541" type="curve"/>
      <point x="133" y="-533" type="line"/>
      <point x="160" y="-479"/>
      <point x="163" y="-435"/>
      <point x="166" y="-407" type="curve" smooth="yes"/>
      <point x="170" y="-364"/>
      <point x="164" y="-319"/>
      <point x="156" y="-277" type="curve" smooth="yes"/>
      <point x="143" y="-213"/>
      <point x="125" y="-155"/>
      <point x="130" y="-114" type="curve"/>
      <point x="147" y="-83"/>
      <point x="190" y="-63"/>
      <point x="237" y="-63" type="curve" smooth="yes"/>
      <point x="278" y="-63"/>
      <point x="321" y="-79"/>
      <point x="350" y="-101" type="curve"/>
      <point x="368" y="17" type="line"/>
      <point x="353" y="52"/>
      <point x="311" y="67"/>
      <point x="271" y="85" type="curve"/>
      <point x="281" y="106"/>
      <point x="304" y="136"/>
      <point x="337" y="136" type="curve" smooth="yes"/>
      <point x="385" y="136"/>
      <point x="405" y="100"/>
      <point x="428" y="65" type="curve" smooth="yes"/>
      <point x="450" y="32"/>
      <point x="475" y="0"/>
      <point x="530" y="0" type="curve" smooth="yes"/>
      <point x="576" y="0" type="line"/>
      <point x="576" y="106" type="line"/>
      <point x="516" y="106" type="line" smooth="yes"/>
      <point x="478" y="106"/>
      <point x="456" y="128"/>
      <point x="437" y="153" type="curve" smooth="yes"/>
      <point x="411" y="188"/>
      <point x="391" y="231"/>
      <point x="340" y="231" type="curve" smooth="yes"/>
      <point x="311" y="231"/>
      <point x="280" y="210"/>
      <point x="255" y="179" type="curve" smooth="yes"/>
      <point x="237" y="157"/>
      <point x="222" y="122"/>
      <point x="213" y="94" type="curve" smooth="yes"/>
      <point x="207" y="73"/>
      <point x="204" y="52"/>
      <point x="205" y="28" type="curve"/>
      <point x="159" y="14"/>
      <point x="126" y="-16"/>
      <point x="105" y="-56" type="curve" smooth="yes"/>
      <point x="89" y="-85"/>
      <point x="79" y="-120"/>
      <point x="73" y="-158" type="curve"/>
    </contour>
    <contour>
      <point x="292" y="0" type="move" name="caret_1"/>
    </contour>
    <contour>
      <point x="347" y="-153" type="move" name="bottom_1"/>
    </contour>
    <contour>
      <point x="328" y="261" type="move" name="top_1"/>
    </contour>
    <contour>
      <point x="115" y="106" type="move" name="top_2"/>
    </contour>
    <contour>
      <point x="124" y="-570" type="move" name="bottom_2"/>
    </contour>
  </outline>
</glyph>
<glyph name="uni066E0649.fina" format="1">
  <advance width="750"/>
  <outline>
    <contour>
      <point x="677" y="106" type="line"/>
      <point x="631" y="106"/>
      <point x="607" y="135"/>
      <point x="585" y="163" type="curve" smooth="yes"/>
      <point x="559" y="197"/>
      <point x="537" y="235"/>
      <point x="486" y="235" type="curve" smooth="yes"/>
      <point x="457" y="235"/>
      <point x="426" y="214"/>
      <point x="401" y="183" type="curve" smooth="yes"/>
      <point x="381" y="159"/>
      <point x="365" y="114"/>
      <point x="355" y="82" type="curve" smooth="yes"/>
      <point x="349" y="63"/>
      <point x="346" y="39"/>
      <point x="355" y="19" type="curve" smooth="yes"/>
      <point x="362" y="3"/>
      <point x="376" y="-11"/>
      <point x="403" y="-15" type="curve" smooth="yes"/>
      <point x="466" y="-25"/>
      <point x="479" y="-29"/>
      <point x="481" y="-41" type="curve"/>
      <point x="457" y="-62"/>
      <point x="429" y="-78"/>
      <point x="396" y="-89" type="curve" smooth="yes"/>
      <point x="362" y="-100"/>
      <point x="324" y="-105"/>
      <point x="281" y="-105" type="curve" smooth="yes"/>
      <point x="229" y="-105"/>
      <point x="190" y="-90"/>
      <point x="164" y="-72" type="curve" smooth="yes"/>
      <point x="124" y="-44"/>
      <point x="109" y="-7"/>
      <point x="110" y="34" type="curve" smooth="yes"/>
      <point x="111" y="82"/>
      <point x="134" y="124"/>
      <point x="143" y="134" type="curve"/>
      <point x="127" y="150" type="line"/>
      <point x="105" y="126"/>
      <point x="94" y="98"/>
      <point x="87" y="76" type="curve" smooth="yes"/>
      <point x="70" y="24"/>
      <point x="70" y="-18"/>
      <point x="70" y="-20" type="curve" smooth="yes"/>
      <point x="70" y="-58"/>
      <point x="79" y="-117"/>
      <point x="121" y="-163" type="curve" smooth="yes"/>
      <point x="150" y="-195"/>
      <point x="204" y="-218"/>
      <point x="278" y="-218" type="curve" smooth="yes"/>
      <point x="325" y="-218"/>
      <point x="381" y="-201"/>
      <point x="427" y="-175" type="curve" smooth="yes"/>
      <point x="472" y="-151"/>
      <point x="507" y="-120"/>
      <point x="517" y="-89" type="curve" smooth="yes"/>
      <point x="521" y="-76"/>
      <point x="525" y="-57"/>
      <point x="531" y="-25" type="curve" smooth="yes"/>
      <point x="543" y="34"/>
      <point x="509" y="46"/>
      <point x="473" y="54" type="curve" smooth="yes"/>
      <point x="449" y="59"/>
      <point x="425" y="62"/>
      <point x="413" y="76" type="curve"/>
      <point x="420" y="95"/>
      <point x="453" y="136"/>
      <point x="486" y="136" type="curve" smooth="yes"/>
      <point x="534" y="136"/>
      <point x="553" y="102"/>
      <point x="573" y="68" type="curve" smooth="yes"/>
      <point x="594" y="34"/>
      <point x="616" y="0"/>
      <point x="671" y="0" type="curve"/>
      <point x="750" y="0" type="line"/>
      <point x="750" y="106" type="line"/>
    </contour>
    <contour>
      <point x="377" y="0" type="move" name="caret_1"/>
    </contour>
    <contour>
      <point x="551" y="-150" type="move" name="bottom_1"/>
    </contour>
    <contour>
      <point x="486" y="264" type="move" name="top_1"/>
    </contour>
    <contour>
      <point x="270" y="132" type="move" name="top_2"/>
    </contour>
    <contour>
      <point x="288" y="-248" type="move" name="bottom_2"/>
    </contour>
  </outline>
</glyph>
<glyph name="uni06A1.medi" format="1">
  <advance width="376"/>
  <outline>
    <contour>
      <point x="281" y="106"/>
      <point x="245" y="107"/>
      <point x="233" y="109" type="curve"/>
      <point x="233" y="109"/>
      <point x="253" y="129"/>
      <point x="253" y="167" type="curve" smooth="yes"/>
      <point x="253" y="202" type="line" smooth="yes"/>
      <point x="253" y="246"/>
      <point x="251" y="321"/>
      <point x="185" y="321" type="curve" smooth="yes"/>
      <point x="161" y="321"/>
      <point x="136" y="311"/>
      <point x="114" y="289" type="curve" smooth="yes"/>
      <point x="81" y="256"/>
      <point x="76" y="224"/>
      <point x="76" y="179" type="curve" smooth="yes"/>
      <point x="76" y="152" type="line" smooth="yes"/>
      <point x="76" y="141"/>
      <point x="79" y="126"/>
      <point x="85" y="111" type="curve"/>
      <point x="78" y="107"/>
      <point x="67" y="106"/>
      <point x="43" y="106" type="curve" smooth="yes"/>
      <point x="-17" y="106" type="line" smooth="yes"/>
      <point x="-46" y="106"/>
      <point x="-70" y="82"/>
      <point x="-70" y="53" type="curve" smooth="yes"/>
      <point x="-70" y="24"/>
      <point x="-46" y="0"/>
      <point x="-17" y="0" type="curve" smooth="yes"/>
      <point x="36" y="0" type="line" smooth="yes"/>
      <point x="89" y="0"/>
      <point x="140" y="20"/>
      <point x="156" y="36" type="curve"/>
      <point x="196" y="9"/>
      <point x="236" y="0"/>
      <point x="288" y="0" type="curve" smooth="yes"/>
      <point x="376" y="0" type="line"/>
      <point x="376" y="106" type="line"/>
      <point x="288" y="106" type="line" smooth="yes"/>
    </contour>
    <contour>
      <point x="111" y="142"/>
      <point x="95" y="173"/>
      <point x="95" y="173" type="curve"/>
      <point x="117" y="204"/>
      <point x="145" y="217"/>
      <point x="173" y="217" type="curve" smooth="yes"/>
      <point x="207" y="217"/>
      <point x="230" y="198"/>
      <point x="230" y="198" type="curve"/>
      <point x="210" y="164"/>
      <point x="179" y="145"/>
      <point x="142" y="131" type="curve"/>
    </contour>
    <contour>
      <point x="155" y="334" type="move" name="top"/>
    </contour>
    <contour>
      <point x="141" y="-34" type="move" name="bottom"/>
    </contour>
  </outline>
</glyph>
<glyph name="uni08AA.fina" format="1">
  <advance width="507"/>
  <outline>
    <contour>
      <point x="383" y="106"/>
      <point x="351" y="125"/>
      <point x="328" y="178" type="curve"/>
      <point x="311" y="162" type="line"/>
      <point x="310" y="153"/>
      <point x="309" y="143"/>
      <point x="309" y="134" type="curve"/>
      <point x="307" y="107"/>
      <point x="318" y="63"/>
      <point x="340" y="42" type="curve"/>
      <point x="334" y="-2"/>
      <point x="314" y="-34"/>
      <point x="282" y="-57" type="curve"/>
      <point x="259" y="2"/>
      <point x="213" y="37"/>
      <point x="160" y="37" type="curve" smooth="yes"/>
      <point x="128" y="37"/>
      <point x="70" y="12"/>
      <point x="70" y="-63" type="curve" smooth="yes"/>
      <point x="70" y="-99"/>
      <point x="84" y="-137"/>
      <point x="108" y="-159" type="curve" smooth="yes"/>
      <point x="131" y="-180"/>
      <point x="164" y="-194"/>
      <point x="200" y="-194" type="curve" smooth="yes"/>
      <point x="224" y="-194"/>
      <point x="256" y="-186"/>
      <point x="280" y="-176" type="curve"/>
      <point x="283" y="-190"/>
      <point x="289" y="-219"/>
      <point x="289" y="-219" type="curve"/>
      <point x="320" y="-192" type="line"/>
      <point x="319" y="-185"/>
      <point x="317" y="-175"/>
      <point x="315" y="-166" type="curve"/>
      <point x="326" y="-158"/>
      <point x="337" y="-150"/>
      <point x="346" y="-140" type="curve" smooth="yes"/>
      <point x="381" y="-104"/>
      <point x="401" y="-53"/>
      <point x="398" y="7" type="curve"/>
      <point x="410" y="2"/>
      <point x="429" y="0"/>
      <point x="453" y="0" type="curve" smooth="yes"/>
      <point x="507" y="0" type="line"/>
      <point x="507" y="106" type="line"/>
      <point x="431" y="106" type="line" smooth="yes"/>
    </contour>
    <contour>
      <point x="137" y="-92"/>
      <point x="106" y="-81"/>
      <point x="106" y="-45" type="curve" smooth="yes"/>
      <point x="106" y="-19"/>
      <point x="134" y="-4"/>
      <point x="159" y="-4" type="curve" smooth="yes"/>
      <point x="192" y="-4"/>
      <point x="227" y="-24"/>
      <point x="248" y="-76" type="curve"/>
      <point x="224" y="-87"/>
      <point x="198" y="-92"/>
      <point x="173" y="-92" type="curve" smooth="yes"/>
    </contour>
    <contour>
      <point x="261" y="192" type="move" name="top"/>
    </contour>
    <contour>
      <point x="220" y="-234" type="move" name="bottom"/>
    </contour>
  </outline>
</glyph>
